<mxfile host="app.diagrams.net" modified="2022-06-22T07:01:49.360Z" agent="5.0 (Windows NT 10.0; Win64; x64) AppleWebKit/537.36 (KHTML, like Gecko) Chrome/102.0.0.0 Safari/537.36" etag="yScZUVPzYzd0SUgREnMO" version="20.0.1" type="github">
  <diagram id="WKE2A_Vjz8Hv6VAIDM-J" name="Page-1">
    <mxGraphModel dx="2249" dy="1931" grid="1" gridSize="10" guides="1" tooltips="1" connect="1" arrows="1" fold="1" page="1" pageScale="1" pageWidth="827" pageHeight="1169" background="#E3FFFC" math="0" shadow="0">
      <root>
        <mxCell id="0" />
        <mxCell id="1" parent="0" />
        <mxCell id="pOZ7k_gRxGgjl1iSn6RZ-37" value="" style="rounded=1;whiteSpace=wrap;html=1;dashed=1;dashPattern=1 2;fillColor=none;" parent="1" vertex="1">
          <mxGeometry x="150" y="-180" width="670" height="130" as="geometry" />
        </mxCell>
        <mxCell id="pOZ7k_gRxGgjl1iSn6RZ-63" value="" style="rounded=1;whiteSpace=wrap;html=1;fillColor=none;dashed=1;dashPattern=1 2;strokeWidth=2;" parent="1" vertex="1">
          <mxGeometry x="-210" y="-250" width="1360" height="700" as="geometry" />
        </mxCell>
        <mxCell id="pOZ7k_gRxGgjl1iSn6RZ-34" value="" style="rounded=1;whiteSpace=wrap;html=1;dashed=1;dashPattern=1 2;fillColor=none;" parent="1" vertex="1">
          <mxGeometry x="860" y="-20" width="250" height="200" as="geometry" />
        </mxCell>
        <mxCell id="pOZ7k_gRxGgjl1iSn6RZ-33" value="" style="rounded=1;whiteSpace=wrap;html=1;dashed=1;dashPattern=1 2;fillColor=none;" parent="1" vertex="1">
          <mxGeometry x="100" y="260" width="760" height="150" as="geometry" />
        </mxCell>
        <mxCell id="pOZ7k_gRxGgjl1iSn6RZ-18" value="" style="edgeStyle=orthogonalEdgeStyle;rounded=0;orthogonalLoop=1;jettySize=auto;html=1;" parent="1" source="pOZ7k_gRxGgjl1iSn6RZ-1" target="pOZ7k_gRxGgjl1iSn6RZ-2" edge="1">
          <mxGeometry relative="1" as="geometry" />
        </mxCell>
        <mxCell id="pOZ7k_gRxGgjl1iSn6RZ-1" value="Portfolio" style="shape=module;align=left;spacingLeft=20;align=center;verticalAlign=top;fillColor=#fff2cc;strokeColor=#d6b656;" parent="1" vertex="1">
          <mxGeometry x="380" y="360" width="200" height="40" as="geometry" />
        </mxCell>
        <mxCell id="pOZ7k_gRxGgjl1iSn6RZ-16" value="" style="edgeStyle=orthogonalEdgeStyle;rounded=0;orthogonalLoop=1;jettySize=auto;html=1;" parent="1" source="pOZ7k_gRxGgjl1iSn6RZ-2" target="pOZ7k_gRxGgjl1iSn6RZ-9" edge="1">
          <mxGeometry relative="1" as="geometry" />
        </mxCell>
        <mxCell id="pOZ7k_gRxGgjl1iSn6RZ-17" value="" style="edgeStyle=orthogonalEdgeStyle;rounded=0;orthogonalLoop=1;jettySize=auto;html=1;" parent="1" source="pOZ7k_gRxGgjl1iSn6RZ-2" target="pOZ7k_gRxGgjl1iSn6RZ-4" edge="1">
          <mxGeometry relative="1" as="geometry" />
        </mxCell>
        <mxCell id="pOZ7k_gRxGgjl1iSn6RZ-2" value="Strategy" style="shape=module;align=left;spacingLeft=20;align=center;verticalAlign=top;fillColor=#f8cecc;strokeColor=#b85450;" parent="1" vertex="1">
          <mxGeometry x="380" y="280" width="200" height="40" as="geometry" />
        </mxCell>
        <mxCell id="pOZ7k_gRxGgjl1iSn6RZ-8" value="" style="edgeStyle=orthogonalEdgeStyle;rounded=0;orthogonalLoop=1;jettySize=auto;html=1;" parent="1" source="pOZ7k_gRxGgjl1iSn6RZ-4" edge="1">
          <mxGeometry relative="1" as="geometry">
            <mxPoint x="740" y="200" as="targetPoint" />
          </mxGeometry>
        </mxCell>
        <mxCell id="pOZ7k_gRxGgjl1iSn6RZ-4" value="MD Agent" style="shape=module;align=left;spacingLeft=20;align=center;verticalAlign=top;fillColor=#d5e8d4;strokeColor=#82b366;" parent="1" vertex="1">
          <mxGeometry x="640" y="280" width="200" height="40" as="geometry" />
        </mxCell>
        <mxCell id="pOZ7k_gRxGgjl1iSn6RZ-5" value="MD Storage" style="strokeWidth=2;html=1;shape=mxgraph.flowchart.database;whiteSpace=wrap;fillColor=#dae8fc;strokeColor=#6c8ebf;" parent="1" vertex="1">
          <mxGeometry x="690" y="-150" width="100" height="70" as="geometry" />
        </mxCell>
        <mxCell id="pOZ7k_gRxGgjl1iSn6RZ-6" value="Kafka" style="html=1;fillColor=#b0e3e6;strokeColor=#0e8088;" parent="1" vertex="1">
          <mxGeometry x="120" y="160" width="720" height="40" as="geometry" />
        </mxCell>
        <mxCell id="pOZ7k_gRxGgjl1iSn6RZ-10" value="" style="edgeStyle=orthogonalEdgeStyle;rounded=0;orthogonalLoop=1;jettySize=auto;html=1;entryX=0.139;entryY=1;entryDx=0;entryDy=0;entryPerimeter=0;" parent="1" source="pOZ7k_gRxGgjl1iSn6RZ-9" target="pOZ7k_gRxGgjl1iSn6RZ-6" edge="1">
          <mxGeometry relative="1" as="geometry" />
        </mxCell>
        <mxCell id="pOZ7k_gRxGgjl1iSn6RZ-9" value="Trade Agent" style="shape=module;align=left;spacingLeft=20;align=center;verticalAlign=top;fillColor=#d5e8d4;strokeColor=#82b366;" parent="1" vertex="1">
          <mxGeometry x="120" y="280" width="200" height="40" as="geometry" />
        </mxCell>
        <mxCell id="pOZ7k_gRxGgjl1iSn6RZ-11" value="Strategies Storage" style="strokeWidth=2;html=1;shape=mxgraph.flowchart.database;whiteSpace=wrap;fillColor=#dae8fc;strokeColor=#6c8ebf;" parent="1" vertex="1">
          <mxGeometry x="350" y="-150" width="100" height="70" as="geometry" />
        </mxCell>
        <mxCell id="pOZ7k_gRxGgjl1iSn6RZ-12" value="Orders history Storage" style="strokeWidth=2;html=1;shape=mxgraph.flowchart.database;whiteSpace=wrap;fillColor=#dae8fc;strokeColor=#6c8ebf;" parent="1" vertex="1">
          <mxGeometry x="520" y="-150" width="100" height="70" as="geometry" />
        </mxCell>
        <mxCell id="pOZ7k_gRxGgjl1iSn6RZ-20" value="" style="edgeStyle=orthogonalEdgeStyle;rounded=0;orthogonalLoop=1;jettySize=auto;html=1;" parent="1" source="pOZ7k_gRxGgjl1iSn6RZ-13" edge="1">
          <mxGeometry relative="1" as="geometry">
            <mxPoint x="740" y="160" as="targetPoint" />
          </mxGeometry>
        </mxCell>
        <mxCell id="pOZ7k_gRxGgjl1iSn6RZ-13" value="MD Consumer" style="shape=module;align=left;spacingLeft=20;align=center;verticalAlign=top;fillColor=#fff2cc;strokeColor=#d6b656;" parent="1" vertex="1">
          <mxGeometry x="640" y="70" width="200" height="40" as="geometry" />
        </mxCell>
        <mxCell id="pOZ7k_gRxGgjl1iSn6RZ-19" value="" style="edgeStyle=orthogonalEdgeStyle;rounded=0;orthogonalLoop=1;jettySize=auto;html=1;entryX=0.5;entryY=0;entryDx=0;entryDy=0;" parent="1" source="pOZ7k_gRxGgjl1iSn6RZ-14" target="pOZ7k_gRxGgjl1iSn6RZ-6" edge="1">
          <mxGeometry relative="1" as="geometry" />
        </mxCell>
        <mxCell id="pOZ7k_gRxGgjl1iSn6RZ-14" value="Orders consumer" style="shape=module;align=left;spacingLeft=20;align=center;verticalAlign=top;fillColor=#fff2cc;strokeColor=#d6b656;" parent="1" vertex="1">
          <mxGeometry x="380" y="70" width="200" height="40" as="geometry" />
        </mxCell>
        <mxCell id="pOZ7k_gRxGgjl1iSn6RZ-15" value="Backtests&lt;br&gt;Storage" style="strokeWidth=2;html=1;shape=mxgraph.flowchart.database;whiteSpace=wrap;fillColor=#dae8fc;strokeColor=#6c8ebf;" parent="1" vertex="1">
          <mxGeometry x="170" y="-150" width="100" height="70" as="geometry" />
        </mxCell>
        <mxCell id="pOZ7k_gRxGgjl1iSn6RZ-21" value="Backtest" style="shape=module;align=left;spacingLeft=20;align=center;verticalAlign=top;fillColor=#f8cecc;strokeColor=#b85450;" parent="1" vertex="1">
          <mxGeometry x="-140" y="70" width="200" height="40" as="geometry" />
        </mxCell>
        <mxCell id="pOZ7k_gRxGgjl1iSn6RZ-22" value="Backtest UI" style="shape=module;align=left;spacingLeft=20;align=center;verticalAlign=top;fillColor=#bac8d3;strokeColor=#23445d;" parent="1" vertex="1">
          <mxGeometry x="880" width="200" height="40" as="geometry" />
        </mxCell>
        <mxCell id="pOZ7k_gRxGgjl1iSn6RZ-23" value="Portfolio UI" style="shape=module;align=left;spacingLeft=20;align=center;verticalAlign=top;fillColor=#bac8d3;strokeColor=#23445d;" parent="1" vertex="1">
          <mxGeometry x="880" y="100" width="200" height="40" as="geometry" />
        </mxCell>
        <mxCell id="pOZ7k_gRxGgjl1iSn6RZ-24" value="" style="endArrow=open;endFill=1;endSize=12;html=1;rounded=0;exitX=0.5;exitY=0;exitDx=0;exitDy=0;entryX=0.5;entryY=1;entryDx=0;entryDy=0;entryPerimeter=0;" parent="1" source="pOZ7k_gRxGgjl1iSn6RZ-13" target="pOZ7k_gRxGgjl1iSn6RZ-5" edge="1">
          <mxGeometry width="160" relative="1" as="geometry">
            <mxPoint x="820" as="sourcePoint" />
            <mxPoint x="980" as="targetPoint" />
            <Array as="points">
              <mxPoint x="740" y="20" />
            </Array>
          </mxGeometry>
        </mxCell>
        <mxCell id="pOZ7k_gRxGgjl1iSn6RZ-25" value="" style="endArrow=open;endFill=1;endSize=12;html=1;rounded=0;exitX=0.5;exitY=0;exitDx=0;exitDy=0;entryX=0.5;entryY=1;entryDx=0;entryDy=0;entryPerimeter=0;" parent="1" source="pOZ7k_gRxGgjl1iSn6RZ-14" target="pOZ7k_gRxGgjl1iSn6RZ-12" edge="1">
          <mxGeometry width="160" relative="1" as="geometry">
            <mxPoint x="540" y="20" as="sourcePoint" />
            <mxPoint x="700" y="20" as="targetPoint" />
            <Array as="points">
              <mxPoint x="480" y="-10" />
              <mxPoint x="570" y="-10" />
            </Array>
          </mxGeometry>
        </mxCell>
        <mxCell id="pOZ7k_gRxGgjl1iSn6RZ-26" value="" style="endArrow=open;endFill=1;endSize=12;html=1;rounded=0;exitX=0.5;exitY=0;exitDx=0;exitDy=0;entryX=0.5;entryY=0;entryDx=0;entryDy=0;entryPerimeter=0;" parent="1" source="pOZ7k_gRxGgjl1iSn6RZ-22" target="pOZ7k_gRxGgjl1iSn6RZ-11" edge="1">
          <mxGeometry width="160" relative="1" as="geometry">
            <mxPoint x="1050" y="-10" as="sourcePoint" />
            <mxPoint x="1210" y="-10" as="targetPoint" />
            <Array as="points">
              <mxPoint x="980" y="-210" />
              <mxPoint x="400" y="-210" />
            </Array>
          </mxGeometry>
        </mxCell>
        <mxCell id="pOZ7k_gRxGgjl1iSn6RZ-27" value="" style="endArrow=open;endFill=1;endSize=12;html=1;rounded=0;exitX=0.5;exitY=0;exitDx=0;exitDy=0;entryX=0.5;entryY=0;entryDx=0;entryDy=0;entryPerimeter=0;" parent="1" source="pOZ7k_gRxGgjl1iSn6RZ-23" target="pOZ7k_gRxGgjl1iSn6RZ-12" edge="1">
          <mxGeometry width="160" relative="1" as="geometry">
            <mxPoint x="950" y="260" as="sourcePoint" />
            <mxPoint x="1110" y="260" as="targetPoint" />
            <Array as="points">
              <mxPoint x="980" y="60" />
              <mxPoint x="860" y="60" />
              <mxPoint x="860" y="-190" />
              <mxPoint x="570" y="-190" />
            </Array>
          </mxGeometry>
        </mxCell>
        <mxCell id="pOZ7k_gRxGgjl1iSn6RZ-28" value="" style="endArrow=open;endFill=1;endSize=12;html=1;rounded=0;exitX=0.5;exitY=0;exitDx=0;exitDy=0;entryX=0.5;entryY=1;entryDx=0;entryDy=0;entryPerimeter=0;" parent="1" source="pOZ7k_gRxGgjl1iSn6RZ-21" target="pOZ7k_gRxGgjl1iSn6RZ-15" edge="1">
          <mxGeometry width="160" relative="1" as="geometry">
            <mxPoint x="150" y="590" as="sourcePoint" />
            <mxPoint x="310" y="590" as="targetPoint" />
            <Array as="points">
              <mxPoint x="-40" />
              <mxPoint x="90" />
              <mxPoint x="200" />
              <mxPoint x="220" />
            </Array>
          </mxGeometry>
        </mxCell>
        <mxCell id="pOZ7k_gRxGgjl1iSn6RZ-30" value="Strategy resolver" style="shape=module;align=left;spacingLeft=20;align=center;verticalAlign=top;fillColor=#f8cecc;strokeColor=#b85450;" parent="1" vertex="1">
          <mxGeometry x="120" y="70" width="200" height="40" as="geometry" />
        </mxCell>
        <mxCell id="pOZ7k_gRxGgjl1iSn6RZ-31" value="" style="endArrow=open;endFill=1;endSize=12;html=1;rounded=0;exitX=0.5;exitY=0;exitDx=0;exitDy=0;entryX=0.5;entryY=0;entryDx=0;entryDy=0;entryPerimeter=0;" parent="1" source="pOZ7k_gRxGgjl1iSn6RZ-30" target="pOZ7k_gRxGgjl1iSn6RZ-15" edge="1">
          <mxGeometry width="160" relative="1" as="geometry">
            <mxPoint x="350" y="10" as="sourcePoint" />
            <mxPoint x="510" y="10" as="targetPoint" />
            <Array as="points">
              <mxPoint x="220" y="30" />
              <mxPoint x="280" y="30" />
              <mxPoint x="280" y="-200" />
              <mxPoint x="220" y="-200" />
            </Array>
          </mxGeometry>
        </mxCell>
        <mxCell id="pOZ7k_gRxGgjl1iSn6RZ-32" value="" style="endArrow=open;endFill=1;endSize=12;html=1;rounded=0;exitX=0.75;exitY=0;exitDx=0;exitDy=0;entryX=0.5;entryY=1;entryDx=0;entryDy=0;entryPerimeter=0;" parent="1" source="pOZ7k_gRxGgjl1iSn6RZ-30" target="pOZ7k_gRxGgjl1iSn6RZ-11" edge="1">
          <mxGeometry width="160" relative="1" as="geometry">
            <mxPoint x="340" y="50" as="sourcePoint" />
            <mxPoint x="500" y="50" as="targetPoint" />
            <Array as="points">
              <mxPoint x="270" y="50" />
              <mxPoint x="400" y="50" />
            </Array>
          </mxGeometry>
        </mxCell>
        <mxCell id="pOZ7k_gRxGgjl1iSn6RZ-35" value="" style="rounded=1;whiteSpace=wrap;html=1;dashed=1;dashPattern=1 2;fillColor=none;" parent="1" vertex="1">
          <mxGeometry x="360" y="60" width="490" height="80" as="geometry" />
        </mxCell>
        <mxCell id="pOZ7k_gRxGgjl1iSn6RZ-36" value="" style="rounded=1;whiteSpace=wrap;html=1;dashed=1;dashPattern=1 2;fillColor=none;" parent="1" vertex="1">
          <mxGeometry x="-150" y="-30" width="490" height="160" as="geometry" />
        </mxCell>
        <mxCell id="pOZ7k_gRxGgjl1iSn6RZ-38" value="Orleans I" style="text;html=1;strokeColor=none;fillColor=none;align=center;verticalAlign=middle;whiteSpace=wrap;rounded=0;dashed=1;dashPattern=1 2;fontStyle=1" parent="1" vertex="1">
          <mxGeometry x="110" y="380" width="60" height="30" as="geometry" />
        </mxCell>
        <mxCell id="pOZ7k_gRxGgjl1iSn6RZ-39" value="Orleans II" style="text;html=1;strokeColor=none;fillColor=none;align=center;verticalAlign=middle;whiteSpace=wrap;rounded=0;dashed=1;dashPattern=1 2;fontStyle=1" parent="1" vertex="1">
          <mxGeometry x="-140" y="-30" width="60" height="30" as="geometry" />
        </mxCell>
        <mxCell id="pOZ7k_gRxGgjl1iSn6RZ-40" value="Kafka M" style="text;html=1;strokeColor=none;fillColor=none;align=center;verticalAlign=middle;whiteSpace=wrap;rounded=0;dashed=1;dashPattern=1 2;fontStyle=1" parent="1" vertex="1">
          <mxGeometry x="360" y="110" width="60" height="30" as="geometry" />
        </mxCell>
        <mxCell id="pOZ7k_gRxGgjl1iSn6RZ-41" value="Web UI" style="text;html=1;strokeColor=none;fillColor=none;align=center;verticalAlign=middle;whiteSpace=wrap;rounded=0;dashed=1;dashPattern=1 2;fontStyle=1" parent="1" vertex="1">
          <mxGeometry x="870" y="150" width="60" height="30" as="geometry" />
        </mxCell>
        <mxCell id="pOZ7k_gRxGgjl1iSn6RZ-42" value="Storage" style="text;html=1;strokeColor=none;fillColor=none;align=center;verticalAlign=middle;whiteSpace=wrap;rounded=0;dashed=1;dashPattern=1 2;fontStyle=1" parent="1" vertex="1">
          <mxGeometry x="150" y="-80" width="60" height="30" as="geometry" />
        </mxCell>
        <mxCell id="pOZ7k_gRxGgjl1iSn6RZ-53" value="" style="edgeStyle=orthogonalEdgeStyle;rounded=0;orthogonalLoop=1;jettySize=auto;html=1;" parent="1" source="pOZ7k_gRxGgjl1iSn6RZ-52" target="pOZ7k_gRxGgjl1iSn6RZ-34" edge="1">
          <mxGeometry relative="1" as="geometry" />
        </mxCell>
        <mxCell id="pOZ7k_gRxGgjl1iSn6RZ-52" value="Alex" style="shape=umlActor;verticalLabelPosition=bottom;verticalAlign=top;html=1;outlineConnect=0;fillColor=#fad7ac;strokeColor=#b46504;" parent="1" vertex="1">
          <mxGeometry x="1180" y="50" width="30" height="60" as="geometry" />
        </mxCell>
        <mxCell id="pOZ7k_gRxGgjl1iSn6RZ-58" value="Exchange provider" style="html=1;fillColor=#fad9d5;strokeColor=#ae4132;" parent="1" vertex="1">
          <mxGeometry x="140" y="500" width="680" height="50" as="geometry" />
        </mxCell>
        <mxCell id="pOZ7k_gRxGgjl1iSn6RZ-59" value="" style="endArrow=open;endFill=1;endSize=12;html=1;rounded=0;exitX=0.5;exitY=1;exitDx=0;exitDy=0;" parent="1" source="pOZ7k_gRxGgjl1iSn6RZ-9" edge="1">
          <mxGeometry width="160" relative="1" as="geometry">
            <mxPoint x="120" y="430" as="sourcePoint" />
            <mxPoint x="220" y="500" as="targetPoint" />
          </mxGeometry>
        </mxCell>
        <mxCell id="pOZ7k_gRxGgjl1iSn6RZ-60" value="" style="endArrow=open;endFill=1;endSize=12;html=1;rounded=0;exitX=0.5;exitY=1;exitDx=0;exitDy=0;" parent="1" source="pOZ7k_gRxGgjl1iSn6RZ-4" edge="1">
          <mxGeometry width="160" relative="1" as="geometry">
            <mxPoint x="731.12" y="330" as="sourcePoint" />
            <mxPoint x="740" y="500" as="targetPoint" />
          </mxGeometry>
        </mxCell>
        <mxCell id="pOZ7k_gRxGgjl1iSn6RZ-61" value="" style="group" parent="1" vertex="1" connectable="0">
          <mxGeometry x="-170" y="180" width="250" height="220" as="geometry" />
        </mxCell>
        <mxCell id="pOZ7k_gRxGgjl1iSn6RZ-43" value="Push Gateway" style="shape=module;align=left;spacingLeft=20;align=center;verticalAlign=top;fillColor=#f8cecc;strokeColor=#b85450;" parent="pOZ7k_gRxGgjl1iSn6RZ-61" vertex="1">
          <mxGeometry x="30" y="150" width="200" height="40" as="geometry" />
        </mxCell>
        <mxCell id="pOZ7k_gRxGgjl1iSn6RZ-44" value="Prometheus" style="shape=module;align=left;spacingLeft=20;align=center;verticalAlign=top;fillColor=#f8cecc;strokeColor=#b85450;" parent="pOZ7k_gRxGgjl1iSn6RZ-61" vertex="1">
          <mxGeometry x="30" y="90" width="200" height="40" as="geometry" />
        </mxCell>
        <mxCell id="pOZ7k_gRxGgjl1iSn6RZ-45" value="Grafana" style="shape=module;align=left;spacingLeft=20;align=center;verticalAlign=top;fillColor=#f8cecc;strokeColor=#b85450;" parent="pOZ7k_gRxGgjl1iSn6RZ-61" vertex="1">
          <mxGeometry x="30" y="30" width="200" height="40" as="geometry" />
        </mxCell>
        <mxCell id="pOZ7k_gRxGgjl1iSn6RZ-46" value="" style="rounded=1;whiteSpace=wrap;html=1;dashed=1;dashPattern=1 2;fillColor=none;" parent="pOZ7k_gRxGgjl1iSn6RZ-61" vertex="1">
          <mxGeometry width="250" height="220" as="geometry" />
        </mxCell>
        <mxCell id="pOZ7k_gRxGgjl1iSn6RZ-47" value="Monitoring" style="text;html=1;strokeColor=none;fillColor=none;align=center;verticalAlign=middle;whiteSpace=wrap;rounded=0;dashed=1;dashPattern=1 2;fontStyle=1" parent="pOZ7k_gRxGgjl1iSn6RZ-61" vertex="1">
          <mxGeometry x="30" y="190" width="60" height="30" as="geometry" />
        </mxCell>
        <mxCell id="pOZ7k_gRxGgjl1iSn6RZ-62" value="" style="group" parent="1" vertex="1" connectable="0">
          <mxGeometry x="870" y="230" width="250" height="180" as="geometry" />
        </mxCell>
        <mxCell id="pOZ7k_gRxGgjl1iSn6RZ-48" value="Kibana" style="shape=module;align=left;spacingLeft=20;align=center;verticalAlign=top;fillColor=#d0cee2;strokeColor=#56517e;" parent="pOZ7k_gRxGgjl1iSn6RZ-62" vertex="1">
          <mxGeometry x="20" y="25" width="200" height="40" as="geometry" />
        </mxCell>
        <mxCell id="pOZ7k_gRxGgjl1iSn6RZ-49" value="Elasticsearch" style="shape=module;align=left;spacingLeft=20;align=center;verticalAlign=top;fillColor=#d0cee2;strokeColor=#56517e;" parent="pOZ7k_gRxGgjl1iSn6RZ-62" vertex="1">
          <mxGeometry x="20" y="90" width="200" height="40" as="geometry" />
        </mxCell>
        <mxCell id="pOZ7k_gRxGgjl1iSn6RZ-50" value="" style="rounded=1;whiteSpace=wrap;html=1;dashed=1;dashPattern=1 2;fillColor=none;" parent="pOZ7k_gRxGgjl1iSn6RZ-62" vertex="1">
          <mxGeometry width="250" height="180" as="geometry" />
        </mxCell>
        <mxCell id="pOZ7k_gRxGgjl1iSn6RZ-51" value="Logging" style="text;html=1;strokeColor=none;fillColor=none;align=center;verticalAlign=middle;whiteSpace=wrap;rounded=0;dashed=1;dashPattern=1 2;fontStyle=1" parent="pOZ7k_gRxGgjl1iSn6RZ-62" vertex="1">
          <mxGeometry x="10" y="140" width="60" height="30" as="geometry" />
        </mxCell>
        <mxCell id="pOZ7k_gRxGgjl1iSn6RZ-64" value="K8S" style="text;html=1;strokeColor=none;fillColor=none;align=center;verticalAlign=middle;whiteSpace=wrap;rounded=0;dashed=1;dashPattern=1 2;fontStyle=1" parent="1" vertex="1">
          <mxGeometry x="-140" y="-240" width="60" height="30" as="geometry" />
        </mxCell>
      </root>
    </mxGraphModel>
  </diagram>
</mxfile>
